<?xml version="1.0" encoding="UTF-8" standalone="no"?>
<!-- Created with Inkscape (http://www.inkscape.org/) -->

<svg
   xmlns:dc="http://purl.org/dc/elements/1.1/"
   xmlns:cc="http://creativecommons.org/ns#"
   xmlns:rdf="http://www.w3.org/1999/02/22-rdf-syntax-ns#"
   xmlns:svg="http://www.w3.org/2000/svg"
   xmlns="http://www.w3.org/2000/svg"
   xmlns:sodipodi="http://sodipodi.sourceforge.net/DTD/sodipodi-0.dtd"
   xmlns:inkscape="http://www.inkscape.org/namespaces/inkscape"
   width="210mm"
   height="297mm"
   viewBox="0 0 210 297"
   version="1.1"
   id="svg87"
   inkscape:version="0.92.1 r15371"
   sodipodi:docname="LogoJR.svg">
  <defs
     id="defs81" />
  <sodipodi:namedview
     id="base"
     pagecolor="#ffffff"
     bordercolor="#666666"
     borderopacity="1.0"
     inkscape:pageopacity="0.0"
     inkscape:pageshadow="2"
     inkscape:zoom="0.35"
     inkscape:cx="-94.285714"
     inkscape:cy="560"
     inkscape:document-units="mm"
     inkscape:current-layer="layer1"
     showgrid="false"
     showguides="false"
     inkscape:window-width="1920"
     inkscape:window-height="1001"
     inkscape:window-x="-9"
     inkscape:window-y="-9"
     inkscape:window-maximized="1" />
  <metadata
     id="metadata84">
    <rdf:RDF>
      <cc:Work
         rdf:about="">
        <dc:format>image/svg+xml</dc:format>
        <dc:type
           rdf:resource="http://purl.org/dc/dcmitype/StillImage" />
        <dc:title></dc:title>
      </cc:Work>
    </rdf:RDF>
  </metadata>
  <g
     inkscape:label="Capa 1"
     inkscape:groupmode="layer"
     id="layer1">
    <g
       id="g114"
       style="fill:#8a916f"
       transform="matrix(1.2881567,0,-1.0419278,0.74033572,148.72339,43.122204)">
      <path
         style="fill:#8a916f;stroke-width:0.37707445"
         inkscape:connector-curvature="0"
         d="m 104.96215,131.88537 c 0.34983,6.63524 2.19559,13.05421 3.64452,19.50463 1.81202,8.86584 2.14734,17.90937 2.40773,26.9239 0.15792,8.27923 0.1645,16.56043 0.24622,24.84066 0.0254,3.80131 0.0815,7.60296 0.0594,11.4044 0.0948,3.76538 -0.28557,7.52262 -0.76141,11.2532 -0.45609,3.29612 -1.02175,6.56866 -1.66925,9.83159 0,0 -14.36859,6.96898 -14.36859,6.96898 v 0 c 0.650469,-3.257 1.31917,-6.49912 1.788891,-9.78996 0.564159,-3.64225 0.849605,-7.34031 0.802104,-11.02701 -0.01083,-3.83173 0.07231,-7.66326 0.116593,-11.49461 0.110992,-8.30042 0.145509,-16.60224 -0.02523,-24.90228 -0.231192,-8.90755 -0.588541,-17.85362 -2.351048,-26.61509 -1.442007,-6.48073 -3.366267,-12.87811 -4.060259,-19.49944 0,0 14.170329,-7.39897 14.170329,-7.39897 z"
         id="path91" />
      <path
         style="fill:#8a916f;stroke-width:0.39040512"
         inkscape:connector-curvature="0"
         d="m 65.877202,149.82447 c 4.996061,-3.9336 9.437145,-8.40019 13.480579,-13.17919 3.27239,-4.06081 6.828945,-7.84928 11.289126,-10.78548 5.584088,-2.93778 11.096713,-5.99703 16.752233,-8.81336 1.03194,-0.51388 4.3008,-1.22926 5.3744,-1.52003 2.85007,-0.77191 5.66975,-1.57313 8.54643,-2.26105 4.53876,-0.77191 9.19535,-1.75205 13.80461,-1.11324 5.65323,1.28154 6.61408,4.79548 8.40903,9.43009 1.71986,4.8739 2.16746,9.96732 2.4784,15.05329 0.22218,5.23927 0.15336,10.46601 -0.49758,15.67521 -0.55822,4.16636 -2.3163,7.88543 -4.8947,11.2761 -2.14025,2.51837 -4.78381,4.58402 -7.59908,6.41012 -6.09668,3.5912 -4.71088,2.79958 -17.22346,9.19452 -0.43722,0.22345 -0.95357,0.27284 -1.42288,0.42975 -1.54996,0.51821 -1.28996,0.46294 -2.77454,1.25486 0,0 13.34668,-9.97249 13.34668,-9.97249 v 0 c 0.51259,-0.21489 1.01938,-0.44227 1.53776,-0.64468 0.45132,-0.17619 0.91779,-0.31701 1.37023,-0.49064 8.37997,-3.21595 -18.58808,10.30081 -10.79454,6.01785 2.9388,-1.58958 5.54233,-3.62468 7.8958,-5.90788 2.69024,-3.11679 4.68011,-6.55027 5.33872,-10.5644 0.79823,-5.10898 0.88133,-10.25997 0.61444,-15.41422 -0.20543,-4.94358 -0.59405,-9.9057 -2.20575,-14.65424 -1.61291,-4.18606 -2.26775,-7.10029 -7.46556,-7.87139 -4.50522,-0.17595 -8.98835,0.56629 -13.3677,1.50667 -3.74964,0.93081 -7.5607,1.85832 -11.213921,3.08639 -5.521099,1.85597 -10.959228,5.6151 9.834971,-5.86217 -4.72519,2.56591 -8.338563,6.34741 -11.66475,10.35462 -1.024875,1.23933 -3.548365,4.33146 -4.641315,5.48638 -2.625252,2.77408 -5.586923,5.30355 -8.442772,7.8634 0,0 -15.864861,6.01521 -15.864861,6.01521 z"
         id="path99" />
      <path
         style="fill:#8a916f;stroke-width:0.37707445"
         inkscape:connector-curvature="0"
         d="m 129.59818,167.35709 c 2.48323,0.0972 5.28339,-0.0205 7.58185,1.12729 1.28607,0.64224 1.86305,1.37366 2.84934,2.36067 1.85433,2.12321 2.89209,4.59416 3.82895,7.20064 1.09526,2.71344 1.6844,5.57955 2.35299,8.4165 0.71882,2.65508 0.75683,5.41073 1.09674,8.12084 0.56056,3.52331 1.9684,6.87753 3.22783,10.20224 1.37641,3.67879 2.8135,7.35688 4.64512,10.83619 1.68045,2.65029 3.48367,5.2303 5.32,7.77651 2.01373,2.87477 3.91671,5.87917 6.64342,8.13281 1.97624,1.73379 4.24252,2.88341 6.69356,3.77304 0,0 -13.2652,8.90761 -13.2652,8.90761 v 0 c -2.55713,-1.05123 -4.92044,-2.37679 -6.98149,-4.24937 -2.68447,-2.46449 -4.70203,-5.49496 -6.79146,-8.46122 -1.9007,-2.59703 -3.78745,-5.21543 -5.4496,-7.97249 -1.83588,-3.54645 -3.27619,-7.29008 -4.66383,-11.03045 -1.34362,-3.40925 -2.8329,-6.85455 -3.51746,-10.46016 -0.41021,-2.65676 -0.3284,-5.38082 -1.01403,-8.00179 -0.64284,-2.77022 -1.19145,-5.57879 -2.25538,-8.22734 -0.93471,-2.33951 -1.68956,-4.69835 -3.44478,-6.60935 -2.96258,-2.71919 -5.95677,-2.49417 -9.78997,-2.4455 0,0 12.93341,-9.39667 12.9334,-9.39667 z"
         id="path101" />
    </g>
    <path
       id="path89"
       d="m 19.992073,66.341347 c 7.840903,0.143045 15.683643,0.128959 23.52545,0.09782 6.589783,-0.03782 13.179754,-0.02493 19.769619,-0.04021 5.390503,0.143025 10.369316,-1.598339 15.478099,-2.98582 0.665693,-0.239492 1.343895,-0.44671 1.997075,-0.718471 2.17758,-0.906004 4.57065,-2.492256 3.52079,-1.892239 -29.946816,17.115185 -19.225033,11.457966 -12.973227,7.174327 3.769058,-2.458135 5.47645,-6.716578 8.358617,-9.989678 6.65764,-3.446399 13.01501,-7.548326 19.97297,-10.339205 0.704074,-0.282412 1.776584,2.378715 2.355984,4.281816 1.23131,4.044365 2.02727,8.2728 2.98476,12.385648 2.46737,10.487456 3.47899,21.237982 5.11154,31.86854 1.63368,13.593075 3.89523,27.075475 6.05179,40.591315 2.28305,13.47893 3.49821,27.08749 4.31068,40.72267 0.22243,7.10141 0.84659,14.22639 0.5138,21.33305 -0.71253,5.81709 -2.54632,9.40282 -7.41042,12.67023 -16.716434,10.26775 -18.973714,12.55441 -34.371649,12.94288 -4.928505,0.0798 -9.858308,0.0594 -14.78723,0.0306 -2.593723,-0.23811 -5.342354,0.40192 -7.899087,-0.27608 -0.506748,-0.13443 -4.660235,-1.81349 -5.13336,-2.0028 -5.446623,-2.21979 -10.662819,-4.93913 -15.719849,-7.93592 -3.905693,-2.36042 -6.474726,-5.74481 -8.084298,-9.94114 -1.163931,-3.51536 -1.257918,-7.23282 -1.349655,-10.89871 -0.03995,-3.8128 0.01282,-7.62541 0.03562,-11.43802 0.0092,-4.21743 0.03059,-8.43456 0.01751,-12.65203 -0.120158,-2.90083 -0.107848,-5.70764 0.959985,-8.43245 0,0 19.766689,-8.79726 19.766689,-8.79726 v 0 c -1.846289,2.13664 -1.580932,4.76388 -1.534977,7.45225 -0.01711,4.22086 -4.74e-4,8.44158 -0.0223,12.66238 -0.0059,3.79149 -0.02254,7.5829 -0.01385,11.37437 0.0369,3.4384 0.04494,6.92923 0.997555,10.26278 1.344443,3.77903 3.710007,6.6916 7.199689,8.75695 4.991282,2.91116 10.159374,5.51544 15.545801,7.62046 1.811609,0.65447 2.966322,1.17986 4.866147,1.46343 2.562636,0.3825 5.217752,-0.0718 7.790555,0.14004 4.8853,0.0308 9.77237,0.11311 14.65632,-0.0547 2.65792,-0.14043 5.312774,-0.27503 7.940014,-0.73673 7.87375,-1.38366 17.82509,-7.967 -10.902934,8.15903 1.27583,-0.63023 3.18481,-1.4654 4.28238,-2.42655 2.351724,-2.05945 3.395254,-5.38128 3.943264,-8.32533 0.73413,-7.06189 -0.004,-14.2221 0.0154,-21.3026 -0.58319,-13.60609 -1.70582,-27.19019 -4.022234,-40.62385 -2.11409,-13.4919 -4.50646,-26.92818 -6.28739,-40.47117 -1.67612,-10.562495 -2.53813,-21.27364 -5.07769,-31.690355 -1.00539,-4.020347 -1.96831,-8.054945 -3.19382,-12.015914 -0.17794,-0.574921 -0.2933,-1.180574 -0.57993,-1.709733 -0.10157,-0.187557 -0.71584,-0.235675 -0.53574,-0.349989 5.75407,-3.65255 11.7116,-6.974221 17.56742,-10.461327 -4.00419,2.90411 -4.49241,7.227162 -8.30701,10.243064 -9.02494,6.781503 -18.825687,13.028612 -29.612114,16.449968 -5.164343,1.431336 -10.324861,2.632464 -15.740203,2.464477 -6.552995,-0.0152 -13.106093,-0.0022 -19.659005,-0.04021 -7.931591,-0.03185 -15.864015,-0.0423 -23.7947403,0.09782 0,0 17.4763763,-12.697325 17.4763763,-12.697325 z"
       inkscape:connector-curvature="0"
       style="stroke-width:0.50897163" />
  </g>
</svg>
